<svg width="1200" height="900" viewBox="0 0 1200 900" fill="none" xmlns="http://www.w3.org/2000/svg">
  <defs>
    <linearGradient id="a" x1="220" y1="120" x2="980" y2="780" gradientUnits="userSpaceOnUse">
      <stop stop-color="#6366F1"/>
      <stop offset="0.55" stop-color="#8B5CF6"/>
      <stop offset="1" stop-color="#D946EF"/>
    </linearGradient>
    <filter id="b" x="-40%" y="-40%" width="180%" height="180%">
      <feGaussianBlur stdDeviation="24"/>
    </filter>
  </defs>

  <rect width="1200" height="900" fill="transparent"/>

  <g filter="url(#b)" opacity="0.9">
    <circle cx="420" cy="420" r="260" fill="url(#a)" opacity="0.22"/>
    <circle cx="820" cy="320" r="240" fill="url(#a)" opacity="0.18"/>
    <circle cx="760" cy="640" r="260" fill="url(#a)" opacity="0.16"/>
  </g>

  <g>
    <rect x="280" y="240" width="640" height="420" rx="28" fill="white" fill-opacity="0.86"/>
    <rect x="280" y="240" width="640" height="420" rx="28" stroke="#E2E8F0"/>

    <rect x="340" y="300" width="220" height="16" rx="8" fill="#0F172A" fill-opacity="0.88"/>
    <rect x="340" y="334" width="380" height="12" rx="6" fill="#94A3B8" fill-opacity="0.65"/>
    <rect x="340" y="390" width="520" height="56" rx="16" fill="#F8FAFC"/>
    <rect x="340" y="466" width="520" height="56" rx="16" fill="#F8FAFC"/>
    <rect x="340" y="546" width="240" height="56" rx="18" fill="#0F172A" fill-opacity="0.92"/>

    <path d="M780 420C800 398 820 440 840 420C860 400 880 438 900 420" stroke="url(#a)" stroke-width="7" stroke-linecap="round"/>
    <path d="M780 460C800 438 820 480 840 460C860 440 880 478 900 460" stroke="url(#a)" stroke-width="7" stroke-linecap="round" opacity="0.75"/>
    <path d="M780 500C800 478 820 520 840 500C860 480 880 518 900 500" stroke="url(#a)" stroke-width="7" stroke-linecap="round" opacity="0.55"/>
  </g>
</svg>

