<svg width="1200" height="800" viewBox="0 0 1200 800" fill="none" xmlns="http://www.w3.org/2000/svg">
  <defs>
    <linearGradient id="g1" x1="120" y1="120" x2="980" y2="720" gradientUnits="userSpaceOnUse">
      <stop stop-color="#6366F1"/>
      <stop offset="0.5" stop-color="#8B5CF6"/>
      <stop offset="1" stop-color="#D946EF"/>
    </linearGradient>
    <radialGradient id="g2" cx="0" cy="0" r="1" gradientUnits="userSpaceOnUse" gradientTransform="translate(840 320) rotate(135) scale(560 420)">
      <stop stop-color="#FFFFFF" stop-opacity="0.9"/>
      <stop offset="1" stop-color="#FFFFFF" stop-opacity="0"/>
    </radialGradient>
    <filter id="blur" x="-40%" y="-40%" width="180%" height="180%" filterUnits="objectBoundingBox">
      <feGaussianBlur stdDeviation="28"/>
    </filter>
  </defs>

  <!-- background -->
  <rect width="1200" height="800" fill="transparent"/>

  <!-- glow -->
  <g filter="url(#blur)" opacity="0.9">
    <path d="M220 560C220 420 420 260 600 260C780 260 980 420 980 560C980 700 780 760 600 760C420 760 220 700 220 560Z" fill="url(#g1)" opacity="0.45"/>
    <circle cx="860" cy="260" r="220" fill="url(#g2)" opacity="0.5"/>
  </g>

  <!-- cards -->
  <g>
    <rect x="210" y="180" width="780" height="480" rx="28" fill="white" fill-opacity="0.85"/>
    <rect x="210" y="180" width="780" height="480" rx="28" stroke="#E2E8F0"/>

    <rect x="260" y="240" width="280" height="22" rx="11" fill="#0F172A" fill-opacity="0.9"/>
    <rect x="260" y="280" width="420" height="14" rx="7" fill="#94A3B8" fill-opacity="0.75"/>
    <rect x="260" y="306" width="360" height="14" rx="7" fill="#94A3B8" fill-opacity="0.6"/>

    <rect x="260" y="360" width="310" height="140" rx="18" fill="url(#g1)" fill-opacity="0.12"/>
    <rect x="260" y="360" width="310" height="140" rx="18" stroke="#E2E8F0"/>
    <rect x="590" y="360" width="350" height="140" rx="18" fill="url(#g1)" fill-opacity="0.12"/>
    <rect x="590" y="360" width="350" height="140" rx="18" stroke="#E2E8F0"/>

    <rect x="260" y="530" width="240" height="52" rx="18" fill="#0F172A" fill-opacity="0.92"/>
    <rect x="520" y="530" width="180" height="52" rx="18" fill="#FFFFFF" fill-opacity="0.9"/>
    <rect x="520" y="530" width="180" height="52" rx="18" stroke="#E2E8F0"/>

    <!-- tiny waveform -->
    <path d="M650 412C670 390 690 430 710 412C730 394 750 424 770 412C790 400 810 432 830 412" stroke="url(#g1)" stroke-width="6" stroke-linecap="round"/>
    <path d="M330 412C350 394 370 424 390 412C410 400 430 432 450 412C470 392 490 430 510 412" stroke="url(#g1)" stroke-width="6" stroke-linecap="round" opacity="0.8"/>
  </g>
</svg>

